<svg xmlns="http://www.w3.org/2000/svg" width="38.301" height="38.301" viewBox="0 0 38.301 38.301"><g transform="translate(-339 -104)"><rect width="38.301" height="38.301" rx="19.15" transform="translate(377.301 104) rotate(90)" fill="#1f2124"></rect><path d="M2.594,0V-6.846c0-2.709-1.827-4.41-4.956-4.41-2.583,0-4.452,1.323-4.914,3.528h3.213a1.671,1.671,0,0,1,1.6-.8A1.386,1.386,0,0,1-.934-7.1v1.281a4.693,4.693,0,0,0-2.877-.819c-2.562,0-4.263,1.155-4.263,3.423C-8.075-1.2-6.562.252-4.043.252A4.284,4.284,0,0,0-.788-.924V0Zm-5.46-2c-1.113,0-1.911-.441-1.911-1.281,0-.861.756-1.281,1.953-1.281,1.092,0,1.89.546,1.89,1.281S-1.8-2-2.867-2ZM7.591,0V-11H4.063V0ZM3.874-13.818a1.777,1.777,0,0,0,1.953,1.827A1.777,1.777,0,0,0,7.78-13.818a1.777,1.777,0,0,0-1.953-1.827A1.777,1.777,0,0,0,3.874-13.818Z" transform="translate(357.154 130.252)" fill="#fff"></path></g></svg>